<svg width="760" height="560" viewBox="0 0 760 560" fill="none" xmlns="http://www.w3.org/2000/svg">
  <defs>
    <linearGradient id="outline" x1="150" y1="90" x2="610" y2="450" gradientUnits="userSpaceOnUse">
      <stop stop-color="#7DD3FC"/>
      <stop offset="1" stop-color="#3B82F6"/>
    </linearGradient>
    <linearGradient id="panel" x1="180" y1="120" x2="560" y2="420" gradientUnits="userSpaceOnUse">
      <stop stop-color="#0B1020"/>
      <stop offset="1" stop-color="#111827"/>
    </linearGradient>
    <radialGradient id="glow" cx="0" cy="0" r="1" gradientUnits="userSpaceOnUse" gradientTransform="translate(382 281) rotate(90) scale(240 340)">
      <stop stop-color="#38BDF8" stop-opacity="0.18"/>
      <stop offset="1" stop-color="#38BDF8" stop-opacity="0"/>
    </radialGradient>
  </defs>
  <rect width="760" height="560" rx="32" fill="#050508"/>
  <circle cx="388" cy="274" r="228" fill="url(#glow)"/>
  <rect x="146" y="92" width="468" height="376" rx="30" fill="#08101E" stroke="url(#outline)" stroke-width="2.5"/>
  <rect x="178" y="124" width="404" height="312" rx="24" fill="url(#panel)" stroke="#93C5FD" stroke-opacity="0.16"/>
  <rect x="206" y="154" width="148" height="96" rx="20" fill="#0F172A" stroke="#7DD3FC" stroke-opacity="0.25"/>
  <path d="M230 222L254 182H263L239 222H230Z" fill="#E5EEF9"/>
  <path d="M248 222L272 182H281L257 222H248Z" fill="#38BDF8"/>
  <path d="M266 222L290 182H299L275 222H266Z" fill="#2563EB"/>
  <rect x="382" y="160" width="164" height="18" rx="9" fill="#7DD3FC" fill-opacity="0.18"/>
  <rect x="382" y="194" width="132" height="14" rx="7" fill="#FFFFFF" fill-opacity="0.14"/>
  <rect x="382" y="222" width="110" height="14" rx="7" fill="#FFFFFF" fill-opacity="0.09"/>
  <rect x="206" y="286" width="340" height="20" rx="10" fill="#FFFFFF" fill-opacity="0.07"/>
  <rect x="206" y="322" width="272" height="20" rx="10" fill="#FFFFFF" fill-opacity="0.07"/>
  <rect x="206" y="358" width="212" height="20" rx="10" fill="#FFFFFF" fill-opacity="0.07"/>
  <rect x="206" y="394" width="148" height="20" rx="10" fill="#7DD3FC" fill-opacity="0.14"/>
  <circle cx="566" cy="148" r="18" fill="#7DD3FC" fill-opacity="0.1"/>
  <circle cx="566" cy="148" r="6" fill="#7DD3FC"/>
  <circle cx="596" cy="190" r="10" fill="#2563EB" fill-opacity="0.65"/>
  <circle cx="156" cy="430" r="8" fill="#38BDF8" fill-opacity="0.5"/>
  <circle cx="624" cy="436" r="12" fill="#7DD3FC" fill-opacity="0.18"/>
</svg>
