<svg width="760" height="560" viewBox="0 0 760 560" fill="none" xmlns="http://www.w3.org/2000/svg">
  <defs>
    <linearGradient id="cardStroke" x1="160" y1="96" x2="618" y2="462" gradientUnits="userSpaceOnUse">
      <stop stop-color="#9AE6FF"/>
      <stop offset="1" stop-color="#4DA6FF"/>
    </linearGradient>
    <linearGradient id="softFill" x1="210" y1="138" x2="560" y2="408" gradientUnits="userSpaceOnUse">
      <stop stop-color="#0B1220"/>
      <stop offset="1" stop-color="#101827"/>
    </linearGradient>
    <radialGradient id="ambient" cx="0" cy="0" r="1" gradientUnits="userSpaceOnUse" gradientTransform="translate(370 286) rotate(90) scale(240 330)">
      <stop stop-color="#7DD3FC" stop-opacity="0.18"/>
      <stop offset="1" stop-color="#7DD3FC" stop-opacity="0"/>
    </radialGradient>
  </defs>
  <rect width="760" height="560" rx="36" fill="#050508"/>
  <circle cx="382" cy="282" r="230" fill="url(#ambient)"/>
  <rect x="156" y="96" width="448" height="360" rx="34" fill="#07101B" stroke="url(#cardStroke)" stroke-width="2.5"/>
  <rect x="192" y="132" width="376" height="288" rx="24" fill="url(#softFill)" stroke="#7DD3FC" stroke-opacity="0.14"/>
  <path d="M228 358L300 286L360 300L452 182L528 198" stroke="#7DD3FC" stroke-width="5" stroke-linecap="round" stroke-linejoin="round"/>
  <circle cx="228" cy="358" r="10" fill="#FFFFFF"/>
  <circle cx="300" cy="286" r="10" fill="#7DD3FC"/>
  <circle cx="360" cy="300" r="10" fill="#FFFFFF"/>
  <circle cx="452" cy="182" r="10" fill="#7DD3FC"/>
  <circle cx="528" cy="198" r="10" fill="#FFFFFF"/>
  <rect x="230" y="166" width="116" height="14" rx="7" fill="#7DD3FC" fill-opacity="0.16"/>
  <rect x="230" y="194" width="168" height="14" rx="7" fill="#FFFFFF" fill-opacity="0.1"/>
  <rect x="230" y="222" width="128" height="14" rx="7" fill="#FFFFFF" fill-opacity="0.08"/>
  <rect x="472" y="160" width="54" height="54" rx="18" fill="#0C1829" stroke="#7DD3FC" stroke-opacity="0.34"/>
  <circle cx="499" cy="187" r="12" stroke="#7DD3FC" stroke-width="3"/>
  <path d="M499 175V199" stroke="#FFFFFF" stroke-width="2.6" stroke-linecap="round"/>
  <path d="M487 187H511" stroke="#FFFFFF" stroke-width="2.6" stroke-linecap="round"/>
  <rect x="222" y="386" width="148" height="16" rx="8" fill="#FFFFFF" fill-opacity="0.08"/>
  <rect x="388" y="386" width="122" height="16" rx="8" fill="#7DD3FC" fill-opacity="0.14"/>
</svg>
